<svg xmlns="http://www.w3.org/2000/svg" xmlns:xlink="http://www.w3.org/1999/xlink" width="1080" zoomAndPan="magnify" viewBox="0 0 810 809.999993" height="1080" preserveAspectRatio="xMidYMid meet" version="1.0"><defs><g/></defs><rect x="-81" width="972" fill="#ffffff" y="-80.999999" height="971.999992" fill-opacity="1"/><rect x="-81" width="972" fill="#000042" y="-80.999999" height="971.999992" fill-opacity="1"/><path fill="#ffffff" d="M 240.292969 487.722656 C 300.824219 486.464844 349.066406 444.9375 351.273438 380.445312 C 357.261719 407.1875 368.929688 430.78125 381.855469 450.914062 C 345.597656 478.914062 311.230469 491.496094 275.289062 491.496094 C 262.992188 491.496094 251.644531 490.238281 240.292969 487.722656 Z M 240.292969 487.722656 " fill-opacity="1" fill-rule="nonzero"/><path fill="#ffffff" d="M 752.3125 375.097656 C 752.3125 381.074219 748.53125 385.164062 742.539062 385.164062 L 728.667969 385.164062 L 729.296875 376.355469 C 731.820312 341.121094 724.253906 317.210938 709.4375 296.132812 L 743.171875 305.886719 C 750.421875 308.402344 752.3125 311.863281 752.3125 321.300781 Z M 752.3125 375.097656 " fill-opacity="1" fill-rule="nonzero"/><path fill="#ffffff" d="M 56.484375 321.300781 C 56.484375 311.863281 58.375 308.085938 65.308594 305.886719 L 100.621094 296.132812 C 84.542969 318.785156 76.660156 349.300781 77.921875 376.039062 L 78.550781 385.164062 L 65.941406 385.164062 C 60.265625 385.164062 56.484375 381.074219 56.484375 375.097656 Z M 56.484375 321.300781 " fill-opacity="1" fill-rule="nonzero"/><path fill="#ffffff" d="M 178.496094 292.671875 C 196.78125 269.707031 222.636719 258.382812 256.371094 258.382812 C 317.535156 258.382812 366.40625 295.503906 390.050781 357.476562 L 402.664062 389.566406 C 433.246094 469.785156 472.96875 509.738281 519.316406 524.527344 C 447.117188 513.828125 390.367188 470.730469 366.40625 399.949219 L 355.6875 367.542969 C 332.667969 301.167969 296.726562 270.964844 239.976562 270.964844 C 216.960938 270.964844 194.261719 279.457031 178.496094 292.671875 Z M 178.496094 292.671875 " fill-opacity="1" fill-rule="nonzero"/><path fill="#ffffff" d="M 598.457031 236.050781 C 670.339844 245.488281 721.734375 300.226562 721.734375 365.347656 C 721.734375 422.285156 678.855469 468.53125 620.527344 473.253906 C 659.621094 449.34375 674.441406 417.253906 674.441406 373.527344 C 674.441406 310.921875 645.4375 255.554688 598.457031 236.050781 Z M 598.457031 236.050781 " fill-opacity="1" fill-rule="nonzero"/><path fill="#ffffff" d="M 477.070312 232.585938 C 449.011719 243.914062 425.679688 260.269531 405.1875 282.921875 C 377.441406 254.921875 359.46875 244.226562 327.941406 232.902344 Z M 477.070312 232.585938 " fill-opacity="1" fill-rule="nonzero"/><path fill="#ffffff" d="M 410.230469 289.53125 C 448.378906 249.890625 495.671875 228.5 537.289062 228.5 C 588.996094 228.5 640.386719 262.160156 658.359375 322.878906 C 634.710938 282.925781 594.355469 270.96875 565.347656 270.96875 C 507.652344 270.96875 457.207031 319.101562 457.207031 379.503906 C 444.597656 333.886719 424.734375 304.003906 410.230469 289.53125 Z M 410.230469 289.53125 " fill-opacity="1" fill-rule="nonzero"/><path fill="#ffffff" d="M 86.75 376.039062 C 86.75 288.898438 153.90625 228.496094 251.328125 228.496094 C 340.867188 228.496094 411.492188 277.257812 441.761719 359.996094 L 450.589844 385.792969 C 475.8125 455.003906 517.113281 488.035156 577.964844 488.035156 C 623.363281 488.035156 676.015625 472.621094 703.132812 441.476562 C 680.113281 493.382812 629.667969 523.269531 568.1875 523.269531 C 497.566406 523.269531 445.859375 476.710938 415.277344 396.175781 L 401.402344 359.996094 C 373.65625 288.269531 323.53125 248.945312 258.265625 248.945312 C 184.488281 248.945312 134.042969 301.167969 134.042969 374.78125 C 134.042969 449.96875 189.535156 500.617188 272.769531 500.617188 C 299.882812 500.617188 323.53125 495.269531 347.175781 483.945312 C 320.691406 509.425781 283.171875 523.269531 241.554688 523.269531 C 152.328125 523.269531 86.75 460.980469 86.75 376.039062 Z M 86.75 376.039062 " fill-opacity="1" fill-rule="nonzero"/><g fill="#ffffff" fill-opacity="1"><g transform="translate(53.212312, 703.848757)"><g><path d="M 1.453125 0 L 27.390625 -77.015625 L 56.875 -77.015625 L 82.6875 0 L 63.984375 0 L 58.59375 -16.1875 L 25.671875 -16.1875 L 20.140625 0 Z M 30.28125 -30.015625 L 53.84375 -30.015625 L 42.125 -65.03125 Z M 30.28125 -30.015625 "/></g></g></g><g fill="#ffffff" fill-opacity="1"><g transform="translate(137.340074, 703.848757)"><g><path d="M 6.71875 0 L 6.71875 -55.953125 L 23.828125 -55.953125 L 24.625 -50.6875 C 28.832031 -55.070312 34.226562 -57.265625 40.8125 -57.265625 C 44.144531 -57.265625 47.328125 -56.273438 50.359375 -54.296875 C 53.390625 -52.328125 55.828125 -49.675781 57.671875 -46.34375 C 61.179688 -53.625 68.15625 -57.265625 78.59375 -57.265625 C 94.570312 -57.265625 102.5625 -48.664062 102.5625 -31.46875 L 102.5625 0 L 84.78125 0 L 84.78125 -32.65625 C 84.78125 -40.550781 81.359375 -44.5 74.515625 -44.5 C 70.921875 -44.5 68.222656 -43.070312 66.421875 -40.21875 C 64.617188 -37.363281 63.71875 -33.921875 63.71875 -29.890625 L 63.71875 0 L 45.8125 0 L 45.8125 -32.65625 C 45.8125 -36.070312 44.867188 -38.898438 42.984375 -41.140625 C 41.097656 -43.378906 38.617188 -44.5 35.546875 -44.5 C 32.210938 -44.5 29.554688 -43.070312 27.578125 -40.21875 C 25.609375 -37.363281 24.625 -33.921875 24.625 -29.890625 L 24.625 0 Z M 6.71875 0 "/></g></g></g><g fill="#ffffff" fill-opacity="1"><g transform="translate(245.29743, 703.848757)"><g><path d="M 23.171875 0.796875 C 17.898438 0.796875 13.3125 -0.648438 9.40625 -3.546875 C 5.507812 -6.453125 3.5625 -10.664062 3.5625 -16.1875 C 3.5625 -20.144531 4.832031 -23.460938 7.375 -26.140625 C 9.914062 -28.816406 13.46875 -30.722656 18.03125 -31.859375 C 22.601562 -33.003906 26.925781 -33.769531 31 -34.15625 C 35.082031 -34.550781 39.800781 -34.75 45.15625 -34.75 C 45.15625 -38.351562 44.1875 -40.878906 42.25 -42.328125 C 40.320312 -43.773438 37.601562 -44.5 34.09375 -44.5 C 26.894531 -44.5 23.164062 -42.613281 22.90625 -38.84375 L 6.84375 -38.84375 C 8.78125 -51.125 17.601562 -57.265625 33.3125 -57.265625 C 44.101562 -57.265625 51.738281 -55.113281 56.21875 -50.8125 C 60.695312 -46.519531 62.9375 -39.804688 62.9375 -30.671875 L 62.9375 0 L 46.34375 0 L 45.15625 -6.1875 C 41.46875 -1.53125 34.140625 0.796875 23.171875 0.796875 Z M 32.65625 -11.984375 C 34.144531 -11.984375 36.203125 -12.421875 38.828125 -13.296875 C 41.460938 -14.171875 43.570312 -15.269531 45.15625 -16.59375 L 45.15625 -23.96875 C 39.363281 -23.96875 33.921875 -23.414062 28.828125 -22.3125 C 23.742188 -21.21875 21.203125 -19.398438 21.203125 -16.859375 C 21.203125 -13.609375 25.019531 -11.984375 32.65625 -11.984375 Z M 32.65625 -11.984375 "/></g></g></g><g fill="#ffffff" fill-opacity="1"><g transform="translate(312.968293, 703.848757)"><g><path d="M 6.71875 0 L 6.71875 -55.953125 L 23.4375 -55.953125 L 24.484375 -50.6875 C 28.703125 -55.070312 34.9375 -57.265625 43.1875 -57.265625 C 50.90625 -57.265625 56.914062 -55.09375 61.21875 -50.75 C 65.519531 -46.40625 67.671875 -40.285156 67.671875 -32.390625 L 67.671875 0 L 49.890625 0 L 49.890625 -30.40625 C 49.890625 -35.59375 48.878906 -39.238281 46.859375 -41.34375 C 44.847656 -43.445312 41.867188 -44.5 37.921875 -44.5 C 34.671875 -44.5 31.617188 -43.222656 28.765625 -40.671875 C 25.910156 -38.128906 24.484375 -35.191406 24.484375 -31.859375 L 24.484375 0 Z M 6.71875 0 "/></g></g></g><g fill="#ffffff" fill-opacity="1"><g transform="translate(386.036994, 703.848757)"><g/></g></g><g fill="#ffffff" fill-opacity="1"><g transform="translate(410.919828, 703.848757)"><g><path d="M 5.390625 0 L 6.578125 -18.03125 C 6.753906 -21.457031 7.019531 -25.804688 7.375 -31.078125 C 7.375 -31.160156 8.25 -46.472656 10 -77.015625 L 39.890625 -77.015625 L 55.953125 -26.46875 L 72.015625 -77.015625 L 101.90625 -77.015625 C 102.601562 -66.222656 103.128906 -57.316406 103.484375 -50.296875 C 104.179688 -37.566406 104.835938 -26.8125 105.453125 -18.03125 C 105.546875 -16.28125 105.65625 -14.109375 105.78125 -11.515625 C 105.914062 -8.929688 106.070312 -6.472656 106.25 -4.140625 C 106.425781 -1.816406 106.515625 -0.4375 106.515625 0 L 88.46875 0 L 84.78125 -61.609375 L 65.171875 0 L 46.734375 0 L 27.125 -61.609375 L 23.4375 0 Z M 5.390625 0 "/></g></g></g><g fill="#ffffff" fill-opacity="1"><g transform="translate(522.826842, 703.848757)"><g><path d="M 6.984375 -60.03125 L 6.984375 -77.015625 L 24.359375 -77.015625 L 24.359375 -60.03125 Z M 6.71875 0 L 6.71875 -55.953125 L 24.484375 -55.953125 L 24.484375 0 Z M 6.71875 0 "/></g></g></g><g fill="#ffffff" fill-opacity="1"><g transform="translate(554.029164, 703.848757)"><g><path d="M 32.78125 0.796875 C 25.9375 0.796875 21 -1.195312 17.96875 -5.1875 C 14.9375 -9.1875 13.421875 -15.269531 13.421875 -23.4375 L 13.421875 -42.53125 L 2.765625 -42.53125 L 2.765625 -55.953125 L 13.421875 -55.953125 L 13.421875 -72.671875 L 31.328125 -77.40625 L 31.328125 -55.953125 L 45.421875 -55.953125 L 45.421875 -42.53125 L 31.328125 -42.53125 L 31.328125 -21.859375 C 31.328125 -15.796875 34.664062 -12.765625 41.34375 -12.765625 C 42.132812 -12.765625 43.492188 -12.851562 45.421875 -13.03125 L 45.421875 -0.53125 C 42.960938 0.0820312 38.75 0.523438 32.78125 0.796875 Z M 32.78125 0.796875 "/></g></g></g><g fill="#ffffff" fill-opacity="1"><g transform="translate(604.18984, 703.848757)"><g><path d="M 32.78125 0.796875 C 25.9375 0.796875 21 -1.195312 17.96875 -5.1875 C 14.9375 -9.1875 13.421875 -15.269531 13.421875 -23.4375 L 13.421875 -42.53125 L 2.765625 -42.53125 L 2.765625 -55.953125 L 13.421875 -55.953125 L 13.421875 -72.671875 L 31.328125 -77.40625 L 31.328125 -55.953125 L 45.421875 -55.953125 L 45.421875 -42.53125 L 31.328125 -42.53125 L 31.328125 -21.859375 C 31.328125 -15.796875 34.664062 -12.765625 41.34375 -12.765625 C 42.132812 -12.765625 43.492188 -12.851562 45.421875 -13.03125 L 45.421875 -0.53125 C 42.960938 0.0820312 38.75 0.523438 32.78125 0.796875 Z M 32.78125 0.796875 "/></g></g></g><g fill="#ffffff" fill-opacity="1"><g transform="translate(654.350515, 703.848757)"><g><path d="M 23.171875 0.796875 C 17.898438 0.796875 13.3125 -0.648438 9.40625 -3.546875 C 5.507812 -6.453125 3.5625 -10.664062 3.5625 -16.1875 C 3.5625 -20.144531 4.832031 -23.460938 7.375 -26.140625 C 9.914062 -28.816406 13.46875 -30.722656 18.03125 -31.859375 C 22.601562 -33.003906 26.925781 -33.769531 31 -34.15625 C 35.082031 -34.550781 39.800781 -34.75 45.15625 -34.75 C 45.15625 -38.351562 44.1875 -40.878906 42.25 -42.328125 C 40.320312 -43.773438 37.601562 -44.5 34.09375 -44.5 C 26.894531 -44.5 23.164062 -42.613281 22.90625 -38.84375 L 6.84375 -38.84375 C 8.78125 -51.125 17.601562 -57.265625 33.3125 -57.265625 C 44.101562 -57.265625 51.738281 -55.113281 56.21875 -50.8125 C 60.695312 -46.519531 62.9375 -39.804688 62.9375 -30.671875 L 62.9375 0 L 46.34375 0 L 45.15625 -6.1875 C 41.46875 -1.53125 34.140625 0.796875 23.171875 0.796875 Z M 32.65625 -11.984375 C 34.144531 -11.984375 36.203125 -12.421875 38.828125 -13.296875 C 41.460938 -14.171875 43.570312 -15.269531 45.15625 -16.59375 L 45.15625 -23.96875 C 39.363281 -23.96875 33.921875 -23.414062 28.828125 -22.3125 C 23.742188 -21.21875 21.203125 -19.398438 21.203125 -16.859375 C 21.203125 -13.609375 25.019531 -11.984375 32.65625 -11.984375 Z M 32.65625 -11.984375 "/></g></g></g><g fill="#ffffff" fill-opacity="1"><g transform="translate(722.021392, 703.848757)"><g><path d="M 24.484375 0.796875 C 12.203125 0.796875 6.0625 -7.5 6.0625 -24.09375 L 6.0625 -77.015625 L 23.828125 -77.015625 L 23.828125 -20.015625 C 23.828125 -15.097656 26.414062 -12.421875 31.59375 -11.984375 L 31.59375 0.265625 C 29.570312 0.617188 27.203125 0.796875 24.484375 0.796875 Z M 24.484375 0.796875 "/></g></g></g></svg>